<svg width="43" height="43" viewBox="0 0 43 43" fill="none" xmlns="http://www.w3.org/2000/svg">
<mask id="mask0_105_209" style="mask-type:luminance" maskUnits="userSpaceOnUse" x="0" y="0" width="43" height="43">
<path d="M42.4671 0.828613H0.894165V42.7205H42.4671V0.828613Z" fill="white"/>
</mask>
<g mask="url(#mask0_105_209)">
<mask id="mask1_105_209" style="mask-type:luminance" maskUnits="userSpaceOnUse" x="0" y="0" width="42" height="43">
<path d="M41.6542 0.828613H0.894165V42.7205H41.6542V0.828613Z" fill="white"/>
</mask>
<g mask="url(#mask1_105_209)">
<mask id="mask2_105_209" style="mask-type:luminance" maskUnits="userSpaceOnUse" x="1" y="1" width="41" height="51">
<path d="M41.4961 1.12183H1.18773V51.4959H41.4961V1.12183Z" fill="white"/>
</mask>
<g mask="url(#mask2_105_209)">
<path fill-rule="evenodd" clip-rule="evenodd" d="M7.14931 18.4696C6.94607 18.5147 6.788 18.6952 6.788 18.8982V23.6807C6.788 23.9063 6.94607 24.0868 7.14931 24.1093L9.65588 24.5605C9.92686 25.4854 10.2882 26.3878 10.7624 27.2224L9.29457 29.3204C9.18166 29.5009 9.18166 29.749 9.33973 29.8844L12.727 33.2682C12.8851 33.4262 13.1109 33.4487 13.2915 33.3134L15.3916 31.847C16.2272 32.3208 17.1304 32.6817 18.0563 32.9524L18.5079 35.4565C18.5531 35.6595 18.7337 35.8174 18.937 35.8174H23.7243C23.9501 35.8174 24.1308 35.6595 24.1759 35.4565L24.6276 32.9524C25.5534 32.6817 26.4567 32.3208 27.2922 31.847L29.3923 33.3134C29.573 33.4487 29.8214 33.4262 29.9569 33.2682L33.3441 29.8844C33.5022 29.7265 33.5248 29.5009 33.3893 29.3204L31.9215 27.2224C32.3957 26.3878 32.757 25.4854 33.028 24.5605L35.5345 24.1093C35.7378 24.0642 35.8958 23.8837 35.8958 23.6807V18.8982C35.8958 18.6726 35.7378 18.4921 35.5345 18.4696L33.0054 18.0184C32.7344 17.0935 32.3731 16.1911 31.8989 15.3565L33.3667 13.2585C33.5022 13.078 33.4796 12.8299 33.3215 12.6945L29.9343 9.31066C29.7762 9.15275 29.5504 9.13019 29.3697 9.26555L27.2696 10.7319C26.4341 10.2581 25.5308 9.8972 24.605 9.62649L24.1534 7.12245C24.1082 6.91942 23.9275 6.76151 23.7017 6.76151H18.8918C18.666 6.76151 18.4853 6.91942 18.4402 7.12245L17.9885 9.62649C17.0627 9.87464 16.1594 10.2581 15.3239 10.7319L13.2238 9.26555C13.0431 9.15275 12.7947 9.15275 12.6592 9.31066L9.27199 12.6945C9.11392 12.8524 9.09133 13.078 9.22682 13.2585L10.6946 15.3565C10.2204 16.1911 9.85911 17.0935 9.58813 18.0184L7.14931 18.4696ZM10.4688 18.5147C10.4237 18.6952 10.2882 18.808 10.1075 18.8531L7.66868 19.2817V23.3198L10.1075 23.7484C10.2882 23.7709 10.4237 23.9063 10.4688 24.0868C10.7398 25.1245 11.1463 26.1171 11.6882 27.042C11.7786 27.1999 11.7786 27.3804 11.6657 27.5157L10.243 29.5235L13.1109 32.3659L15.1432 30.9672C15.2787 30.877 15.482 30.8544 15.6175 30.9447C16.5433 31.4861 17.5369 31.9147 18.5757 32.1629C18.7563 32.208 18.8692 32.3433 18.9144 32.5238L19.3434 34.9376H23.3856L23.8146 32.5238C23.8372 32.3433 23.9727 32.208 24.1534 32.1629C25.1921 31.8921 26.1857 31.4861 27.1116 30.9447C27.2696 30.8544 27.4503 30.8544 27.5858 30.9672L29.5955 32.3884L32.4634 29.546L31.0408 27.5383C30.9505 27.4029 30.9279 27.1999 31.0182 27.0645C31.5602 26.1396 31.9892 25.147 32.2376 24.1093C32.2828 23.9288 32.4183 23.8161 32.5989 23.7709L35.0377 23.3423V19.3043L32.5989 18.8756C32.4183 18.8531 32.2828 18.7177 32.2376 18.5373C31.9666 17.4996 31.5602 16.507 31.0182 15.582C30.9279 15.4241 30.9279 15.2437 31.0408 15.1083L32.4634 13.1006L29.5955 10.2581L27.5632 11.6794C27.4277 11.7696 27.2245 11.7921 27.089 11.7019C26.1631 11.1605 25.1695 10.7319 24.1308 10.4837C23.9501 10.4386 23.8372 10.3033 23.792 10.1228L23.363 7.70898H19.3209L18.8918 10.1228C18.8692 10.3033 18.7337 10.4386 18.5531 10.4837C17.5143 10.7544 16.5207 11.1605 15.5949 11.7019C15.4368 11.7921 15.2561 11.7921 15.1207 11.6794L13.0883 10.2581L10.2204 13.1006L11.6431 15.1083C11.7334 15.2437 11.756 15.4467 11.6657 15.582C11.1463 16.4844 10.7398 17.477 10.4688 18.5147ZM21.3758 29.6137C25.9825 29.6137 29.7085 25.8915 29.7085 21.312C29.7085 16.71 25.9825 13.0103 21.3758 13.0103C16.7691 13.0103 13.0431 16.7326 13.0431 21.312C13.0431 25.8915 16.7691 29.5911 21.3758 29.6137ZM21.3758 13.8676C17.2659 13.8676 13.9464 17.1837 13.9464 21.2895C13.9464 25.3952 17.2659 28.7113 21.3758 28.7113C25.4857 28.7113 28.8052 25.3952 28.8052 21.2895C28.8052 17.2063 25.4857 13.8676 21.3758 13.8676ZM19.2757 23.2746C19.2757 23.0265 19.0725 22.8235 18.8241 22.846C18.5982 22.846 18.395 23.049 18.395 23.2746C18.395 24.4928 19.5015 25.508 20.9242 25.6659V26.0268C20.9242 26.275 21.1048 26.478 21.3532 26.478C21.6016 26.478 21.8048 26.2975 21.8048 26.0494V26.0268V25.6659C23.2501 25.4854 24.334 24.4703 24.334 23.2746C24.334 22.0565 23.2275 21.0413 21.8048 20.8834V17.8154C22.7533 17.9733 23.4533 18.5824 23.4533 19.3043C23.4533 19.5524 23.6566 19.7554 23.905 19.7554C24.1533 19.7554 24.3566 19.5524 24.3566 19.3043C24.3566 18.0861 23.2501 17.0709 21.8274 16.913V16.5521C21.8274 16.3039 21.6242 16.1009 21.3758 16.1235C21.15 16.1235 20.9467 16.3265 20.9467 16.5521V16.913C19.5015 17.0935 18.4176 18.1086 18.4176 19.3043C18.4176 20.5224 19.5241 21.5376 20.9467 21.6955V24.7635C19.9757 24.6282 19.2757 24.0191 19.2757 23.2746ZM23.4533 23.2746C23.4533 22.5302 22.7533 21.9211 21.8048 21.7857V24.7861C22.7533 24.6282 23.4533 23.9965 23.4533 23.2746ZM19.2757 19.3043C19.2757 20.0487 19.9757 20.6578 20.9242 20.7932V17.7928C19.9757 17.9733 19.2757 18.5824 19.2757 19.3043ZM5.61375 32.0501C5.74924 32.2531 6.02022 32.3208 6.22345 32.1854C6.42669 32.0501 6.49444 31.7794 6.35895 31.5763C6.35895 31.5763 6.35894 31.5538 6.33636 31.5538C0.645766 23.2746 2.76845 11.9952 11.0559 6.31033C18.2821 1.36992 28.0148 2.27228 34.2248 8.45342C34.2925 8.5211 34.3829 8.61134 34.4506 8.67901L32.0344 8.72413C31.786 8.72413 31.6053 8.94972 31.6053 9.19787C31.6053 9.42346 31.8086 9.62649 32.0344 9.62649L35.4894 9.55881C35.7378 9.55881 35.941 9.35578 35.9184 9.10763C35.9184 9.08508 35.9184 9.08508 35.9184 9.06252L35.512 5.611C35.4894 5.36285 35.2636 5.18238 35.0152 5.2275C34.7668 5.25006 34.5861 5.47565 34.6313 5.7238L34.9023 7.88945L34.8571 7.84434C27.4051 0.399891 15.3239 0.399891 7.84934 7.82178C1.3458 14.2736 0.397368 24.4928 5.61375 32.0501ZM34.8571 34.7571C27.4051 42.2016 15.3013 42.2016 7.84934 34.7571L8.09774 36.8326C8.12032 37.0807 7.96225 37.3063 7.71385 37.3288C7.69127 37.3288 7.66868 37.3288 7.66868 37.3288C7.44287 37.3288 7.26221 37.1709 7.21705 36.9453L6.788 33.4713C6.76542 33.2231 6.92349 32.9975 7.17189 32.975C7.19447 32.975 7.19447 32.975 7.21705 32.975L10.6721 32.9073C10.9205 32.9073 11.1237 33.0878 11.1463 33.3359C11.1463 33.5841 10.9656 33.7871 10.7172 33.8097H10.6946L8.21065 33.8548C8.30097 33.945 8.3913 34.0352 8.48163 34.1255C15.5949 41.209 27.1116 41.209 34.2248 34.1255C40.4348 27.9218 41.3155 18.1989 36.3475 10.98C36.212 10.777 36.2572 10.5063 36.4604 10.3484C36.6636 10.213 36.9346 10.2581 37.0927 10.4612C42.3091 18.041 41.3606 28.2602 34.8571 34.7571Z" fill="white"/>
</g>
</g>
</g>
</svg>
